# xmcd CD database file
#
# Track frame offsets:
#	150
#	57761
#	78705
#	106813
#	160376
#
# Disc length: 2734 seconds
#
# Revision: 0
# Processed by: cddbd v1.4PL0 Copyright (c) Steve Scherf et al.
# Submitted via: Feurio! 1.65 - http://www.feurio.com
#
DISCID=370aac05
DTITLE=John Mayall - Ljubljana 1997 - Disc 2
DYEAR=1900
DGENRE=
TTITLE0=One in a million
TTITLE1=You're just about to lose your clown
TTITLE2=When the devil starts crying
TTITLE3=Blues for the lost days
TTITLE4=Room to move
EXTD=
EXTT0=
EXTT1=
EXTT2=
EXTT3=
EXTT4=
PLAYORDER=
